<svg xmlns="http://www.w3.org/2000/svg" width="1160" height="932" viewBox="0 0 1160 932">
<defs>
  <marker id="aFk" markerWidth="8" markerHeight="8" refX="7" refY="3" orient="auto"><path d="M0,0 L0,6 L8,3 z" fill="#4a5568"/></marker>
  <marker id="aVw" markerWidth="8" markerHeight="8" refX="7" refY="3" orient="auto"><path d="M0,0 L0,6 L8,3 z" fill="#28a566"/></marker>
  <clipPath id="cchat"><rect x="60" y="80" width="300" height="372" rx="8"/></clipPath>
  <clipPath id="cparticipant"><rect x="780" y="80" width="300" height="196" rx="8"/></clipPath>
  <clipPath id="cjoin"><rect x="420" y="80" width="300" height="256" rx="8"/></clipPath>
  <clipPath id="cmessage"><rect x="60" y="520" width="300" height="352" rx="8"/></clipPath>
  <clipPath id="clastmsg"><rect x="780" y="330" width="300" height="182" rx="8"/></clipPath>
</defs>
<rect width="1160" height="932" fill="#161b22"/>
<path d="M360,266 L390,266 L390,208 L420,208" stroke="#4a5568" stroke-width="1.5" fill="none" marker-end="url(#aFk)"/>
<text x="372" y="270" fill="#4a5568" font-size="11" font-family="monospace" font-weight="700" text-anchor="middle">1</text>
<text x="408" y="212" fill="#4a5568" font-size="11" font-family="monospace" font-weight="700" text-anchor="middle">N</text>
<path d="M780,178 L750,178 L750,208 L720,208" stroke="#4a5568" stroke-width="1.5" fill="none" marker-end="url(#aFk)"/>
<text x="768" y="182" fill="#4a5568" font-size="11" font-family="monospace" font-weight="700" text-anchor="middle">1</text>
<text x="732" y="212" fill="#4a5568" font-size="11" font-family="monospace" font-weight="700" text-anchor="middle">N</text>
<path d="M210,452 L210,520" stroke="#4a5568" stroke-width="1.5" fill="none" marker-end="url(#aFk)"/>
<text x="210" y="466" fill="#4a5568" font-size="11" font-family="monospace" font-weight="700" text-anchor="middle">1</text>
<text x="210" y="512" fill="#4a5568" font-size="11" font-family="monospace" font-weight="700" text-anchor="middle">N</text>
<path d="M930,276 L930,308 L760,308 L760,500 L400,500 L400,696 L360,696" stroke="#4a5568" stroke-width="1.5" fill="none" marker-end="url(#aFk)"/>
<text x="930" y="290" fill="#4a5568" font-size="11" font-family="monospace" font-weight="700" text-anchor="middle">1</text>
<text x="372" y="700" fill="#4a5568" font-size="11" font-family="monospace" font-weight="700" text-anchor="middle">N</text>
<path d="M360,266 L390,266 L390,380 L760,380 L760,421 L780,421" stroke="#28a566" stroke-width="1.5" fill="none" stroke-dasharray="6,3" marker-end="url(#aVw)"/>
<text x="372" y="258" fill="#28a566" font-size="11" font-family="monospace" font-weight="700" text-anchor="middle">1</text>
<text x="768" y="425" fill="#28a566" font-size="11" font-family="monospace" font-weight="700" text-anchor="middle">0..1</text>
<rect x="63" y="84" width="300" height="372" rx="8" fill="#000000" fill-opacity="0.4"/>
<rect x="60" y="80" width="300" height="372" rx="8" fill="#1a1f2e" stroke="#30363d" stroke-width="1"/>
<rect x="60" y="80" width="300" height="38" fill="#0d2644" clip-path="url(#cchat)"/>
<text x="210" y="104" fill="#e6edf3" font-size="13" font-family="system-ui, sans-serif" font-weight="600" text-anchor="middle">ChatEntity</text>
<line x1="60" y1="118" x2="360" y2="118" stroke="#30363d" stroke-width="1"/>
<rect x="61" y="118" width="298" height="24" fill="#211d00"/>
<rect x="70" y="123" width="22" height="14" rx="3" fill="#5a4200"/>
<text x="81" y="133" fill="#e3b341" font-size="8" font-family="monospace" font-weight="700" text-anchor="middle">PK</text>
<text x="98" y="134" fill="#e3b341" font-size="11.5" font-family="system-ui, monospace, sans-serif" font-weight="600">chatId</text>
<text x="350" y="134" fill="#6e7681" font-size="10" font-family="monospace" text-anchor="end">String</text>
<rect x="61" y="142" width="298" height="24" fill="#1e2433"/>
<line x1="61" y1="142" x2="359" y2="142" stroke="#30363d" stroke-width="0.5" opacity="0.5"/>
<text x="70" y="158" fill="#cdd9e5" font-size="11.5" font-family="system-ui, monospace, sans-serif" font-weight="400">lastActivityAt</text>
<text x="350" y="158" fill="#6e7681" font-size="10" font-family="monospace" text-anchor="end">Long</text>
<rect x="61" y="166" width="298" height="26" fill="#0a1a1a"/>
<line x1="60" y1="166" x2="360" y2="166" stroke="#1e4040" stroke-width="1"/>
<text x="70" y="183" fill="#3fb980" font-size="9.5" font-family="monospace" font-weight="700">DAO: ChatDao</text>
<rect x="61" y="192" width="298" height="20" fill="#111820"/>
<text x="70" y="206" fill="#8b949e" font-size="9.5" font-family="monospace">upsertChat(chat)</text>
<rect x="61" y="212" width="298" height="20" fill="#131c28"/>
<line x1="61" y1="212" x2="359" y2="212" stroke="#1e2433" stroke-width="0.4" opacity="0.4"/>
<text x="70" y="226" fill="#8b949e" font-size="9.5" font-family="monospace">upsertChats(chats)</text>
<rect x="61" y="232" width="298" height="20" fill="#111820"/>
<line x1="61" y1="232" x2="359" y2="232" stroke="#1e2433" stroke-width="0.4" opacity="0.4"/>
<text x="70" y="246" fill="#8b949e" font-size="9.5" font-family="monospace">deleteChatById(chatId)</text>
<rect x="61" y="252" width="298" height="20" fill="#131c28"/>
<line x1="61" y1="252" x2="359" y2="252" stroke="#1e2433" stroke-width="0.4" opacity="0.4"/>
<text x="70" y="266" fill="#8b949e" font-size="9.5" font-family="monospace">deleteAllChats()</text>
<rect x="61" y="272" width="298" height="20" fill="#111820"/>
<line x1="61" y1="272" x2="359" y2="272" stroke="#1e2433" stroke-width="0.4" opacity="0.4"/>
<text x="70" y="286" fill="#8b949e" font-size="9.5" font-family="monospace">deleteChatsByIds(ids)</text>
<rect x="61" y="292" width="298" height="20" fill="#131c28"/>
<line x1="61" y1="292" x2="359" y2="292" stroke="#1e2433" stroke-width="0.4" opacity="0.4"/>
<text x="70" y="306" fill="#8b949e" font-size="9.5" font-family="monospace">getAllChatIds()</text>
<rect x="61" y="312" width="298" height="20" fill="#111820"/>
<line x1="61" y1="312" x2="359" y2="312" stroke="#1e2433" stroke-width="0.4" opacity="0.4"/>
<text x="70" y="326" fill="#8b949e" font-size="9.5" font-family="monospace">getChatCount()</text>
<rect x="61" y="332" width="298" height="20" fill="#131c28"/>
<line x1="61" y1="332" x2="359" y2="332" stroke="#1e2433" stroke-width="0.4" opacity="0.4"/>
<text x="70" y="346" fill="#8b949e" font-size="9.5" font-family="monospace">getChatById(chatId)</text>
<rect x="61" y="352" width="298" height="20" fill="#111820"/>
<line x1="61" y1="352" x2="359" y2="352" stroke="#1e2433" stroke-width="0.4" opacity="0.4"/>
<text x="70" y="366" fill="#8b949e" font-size="9.5" font-family="monospace">getChatsWithParticipants()</text>
<rect x="61" y="372" width="298" height="20" fill="#131c28"/>
<line x1="61" y1="372" x2="359" y2="372" stroke="#1e2433" stroke-width="0.4" opacity="0.4"/>
<text x="70" y="386" fill="#8b949e" font-size="9.5" font-family="monospace">getActiveParticipants(chatId)</text>
<rect x="61" y="392" width="298" height="20" fill="#111820"/>
<line x1="61" y1="392" x2="359" y2="392" stroke="#1e2433" stroke-width="0.4" opacity="0.4"/>
<text x="70" y="406" fill="#8b949e" font-size="9.5" font-family="monospace">getChatInfoById(chatId)</text>
<rect x="61" y="412" width="298" height="20" fill="#131c28"/>
<line x1="61" y1="412" x2="359" y2="412" stroke="#1e2433" stroke-width="0.4" opacity="0.4"/>
<text x="70" y="426" fill="#8b949e" font-size="9.5" font-family="monospace">upsertChatWithParticipants()</text>
<rect x="61" y="432" width="298" height="20" fill="#111820" clip-path="url(#cchat)"/>
<line x1="61" y1="432" x2="359" y2="432" stroke="#1e2433" stroke-width="0.4" opacity="0.4"/>
<text x="70" y="446" fill="#8b949e" font-size="9.5" font-family="monospace">upsertChatsWithParticipants()</text>
<rect x="60" y="80" width="300" height="372" rx="8" fill="none" stroke="#3d4e63" stroke-width="1"/>
<rect x="783" y="84" width="300" height="196" rx="8" fill="#000000" fill-opacity="0.4"/>
<rect x="780" y="80" width="300" height="196" rx="8" fill="#1a1f2e" stroke="#30363d" stroke-width="1"/>
<rect x="780" y="80" width="300" height="38" fill="#0d2644" clip-path="url(#cparticipant)"/>
<text x="930" y="104" fill="#e6edf3" font-size="13" font-family="system-ui, sans-serif" font-weight="600" text-anchor="middle">ParticipantEntity</text>
<line x1="780" y1="118" x2="1080" y2="118" stroke="#30363d" stroke-width="1"/>
<rect x="781" y="118" width="298" height="24" fill="#211d00"/>
<rect x="790" y="123" width="22" height="14" rx="3" fill="#5a4200"/>
<text x="801" y="133" fill="#e3b341" font-size="8" font-family="monospace" font-weight="700" text-anchor="middle">PK</text>
<text x="818" y="134" fill="#e3b341" font-size="11.5" font-family="system-ui, monospace, sans-serif" font-weight="600">userId</text>
<text x="1070" y="134" fill="#6e7681" font-size="10" font-family="monospace" text-anchor="end">String</text>
<rect x="781" y="142" width="298" height="24" fill="#1e2433"/>
<line x1="781" y1="142" x2="1079" y2="142" stroke="#30363d" stroke-width="0.5" opacity="0.5"/>
<text x="790" y="158" fill="#cdd9e5" font-size="11.5" font-family="system-ui, monospace, sans-serif" font-weight="400">username</text>
<text x="1070" y="158" fill="#6e7681" font-size="10" font-family="monospace" text-anchor="end">String</text>
<rect x="781" y="166" width="298" height="24" fill="#1a1f2e"/>
<line x1="781" y1="166" x2="1079" y2="166" stroke="#30363d" stroke-width="0.5" opacity="0.5"/>
<text x="790" y="182" fill="#cdd9e5" font-size="11.5" font-family="system-ui, monospace, sans-serif" font-weight="400">profilePictureUrl</text>
<text x="1070" y="182" fill="#6e7681" font-size="10" font-family="monospace" text-anchor="end">String?</text>
<rect x="781" y="190" width="298" height="26" fill="#0a1a1a"/>
<line x1="780" y1="190" x2="1080" y2="190" stroke="#1e4040" stroke-width="1"/>
<text x="790" y="207" fill="#3fb980" font-size="9.5" font-family="monospace" font-weight="700">DAO: ParticipantDao</text>
<rect x="781" y="216" width="298" height="20" fill="#111820"/>
<text x="790" y="230" fill="#8b949e" font-size="9.5" font-family="monospace">upsertParticipant(participant)</text>
<rect x="781" y="236" width="298" height="20" fill="#131c28"/>
<line x1="781" y1="236" x2="1079" y2="236" stroke="#1e2433" stroke-width="0.4" opacity="0.4"/>
<text x="790" y="250" fill="#8b949e" font-size="9.5" font-family="monospace">upsertParticipants(participants)</text>
<rect x="781" y="256" width="298" height="20" fill="#111820" clip-path="url(#cparticipant)"/>
<line x1="781" y1="256" x2="1079" y2="256" stroke="#1e2433" stroke-width="0.4" opacity="0.4"/>
<text x="790" y="270" fill="#8b949e" font-size="9.5" font-family="monospace">getAllParticipants()</text>
<rect x="780" y="80" width="300" height="196" rx="8" fill="none" stroke="#3d4e63" stroke-width="1"/>
<rect x="423" y="84" width="300" height="256" rx="8" fill="#000000" fill-opacity="0.4"/>
<rect x="420" y="80" width="300" height="256" rx="8" fill="#1a1f2e" stroke="#30363d" stroke-width="1"/>
<rect x="420" y="80" width="300" height="38" fill="#0d2644" clip-path="url(#cjoin)"/>
<text x="570" y="104" fill="#e6edf3" font-size="13" font-family="system-ui, sans-serif" font-weight="600" text-anchor="middle">ChatParticipantJoin</text>
<line x1="420" y1="118" x2="720" y2="118" stroke="#30363d" stroke-width="1"/>
<rect x="421" y="118" width="298" height="24" fill="#211d00"/>
<rect x="430" y="123" width="38" height="14" rx="3" fill="#3a2a00"/>
<text x="449" y="133" fill="#e3b341" font-size="8" font-family="monospace" font-weight="700" text-anchor="middle">PK·FK</text>
<text x="474" y="134" fill="#e3b341" font-size="11.5" font-family="system-ui, monospace, sans-serif" font-weight="600">chatId</text>
<text x="710" y="134" fill="#6e7681" font-size="10" font-family="monospace" text-anchor="end">String</text>
<rect x="421" y="142" width="298" height="24" fill="#211d00"/>
<line x1="421" y1="142" x2="719" y2="142" stroke="#30363d" stroke-width="0.5" opacity="0.5"/>
<rect x="430" y="147" width="38" height="14" rx="3" fill="#3a2a00"/>
<text x="449" y="157" fill="#e3b341" font-size="8" font-family="monospace" font-weight="700" text-anchor="middle">PK·FK</text>
<text x="474" y="158" fill="#e3b341" font-size="11.5" font-family="system-ui, monospace, sans-serif" font-weight="600">userId</text>
<text x="710" y="158" fill="#6e7681" font-size="10" font-family="monospace" text-anchor="end">String</text>
<rect x="421" y="166" width="298" height="24" fill="#1a1f2e"/>
<line x1="421" y1="166" x2="719" y2="166" stroke="#30363d" stroke-width="0.5" opacity="0.5"/>
<text x="430" y="182" fill="#cdd9e5" font-size="11.5" font-family="system-ui, monospace, sans-serif" font-weight="400">isActive</text>
<text x="710" y="182" fill="#6e7681" font-size="10" font-family="monospace" text-anchor="end">Boolean</text>
<rect x="421" y="190" width="298" height="26" fill="#0a1a1a"/>
<line x1="420" y1="190" x2="720" y2="190" stroke="#1e4040" stroke-width="1"/>
<text x="430" y="207" fill="#3fb980" font-size="9.5" font-family="monospace" font-weight="700">DAO: ChatParticipantsJoinDao</text>
<rect x="421" y="216" width="298" height="20" fill="#111820"/>
<text x="430" y="230" fill="#8b949e" font-size="9.5" font-family="monospace">upsertCrossRefs(crossRefs)</text>
<rect x="421" y="236" width="298" height="20" fill="#131c28"/>
<line x1="421" y1="236" x2="719" y2="236" stroke="#1e2433" stroke-width="0.4" opacity="0.4"/>
<text x="430" y="250" fill="#8b949e" font-size="9.5" font-family="monospace">getActiveParticipantIdsByChat(chatId)</text>
<rect x="421" y="256" width="298" height="20" fill="#111820"/>
<line x1="421" y1="256" x2="719" y2="256" stroke="#1e2433" stroke-width="0.4" opacity="0.4"/>
<text x="430" y="270" fill="#8b949e" font-size="9.5" font-family="monospace">getAllParticipantIdsByChat(chatId)</text>
<rect x="421" y="276" width="298" height="20" fill="#131c28"/>
<line x1="421" y1="276" x2="719" y2="276" stroke="#1e2433" stroke-width="0.4" opacity="0.4"/>
<text x="430" y="290" fill="#8b949e" font-size="9.5" font-family="monospace">markParticipantsAsInactive(chatId, ids)</text>
<rect x="421" y="296" width="298" height="20" fill="#111820"/>
<line x1="421" y1="296" x2="719" y2="296" stroke="#1e2433" stroke-width="0.4" opacity="0.4"/>
<text x="430" y="310" fill="#8b949e" font-size="9.5" font-family="monospace">reactivateParticipants(chatId, ids)</text>
<rect x="421" y="316" width="298" height="20" fill="#131c28" clip-path="url(#cjoin)"/>
<line x1="421" y1="316" x2="719" y2="316" stroke="#1e2433" stroke-width="0.4" opacity="0.4"/>
<text x="430" y="330" fill="#8b949e" font-size="9.5" font-family="monospace">syncChatParticipants(chatId, participants)</text>
<rect x="420" y="80" width="300" height="256" rx="8" fill="none" stroke="#3d4e63" stroke-width="1"/>
<rect x="63" y="524" width="300" height="352" rx="8" fill="#000000" fill-opacity="0.4"/>
<rect x="60" y="520" width="300" height="352" rx="8" fill="#1a1f2e" stroke="#30363d" stroke-width="1"/>
<rect x="60" y="520" width="300" height="38" fill="#0d2644" clip-path="url(#cmessage)"/>
<text x="210" y="544" fill="#e6edf3" font-size="13" font-family="system-ui, sans-serif" font-weight="600" text-anchor="middle">MessageEntity</text>
<line x1="60" y1="558" x2="360" y2="558" stroke="#30363d" stroke-width="1"/>
<rect x="61" y="558" width="298" height="24" fill="#211d00"/>
<rect x="70" y="563" width="22" height="14" rx="3" fill="#5a4200"/>
<text x="81" y="573" fill="#e3b341" font-size="8" font-family="monospace" font-weight="700" text-anchor="middle">PK</text>
<text x="98" y="574" fill="#e3b341" font-size="11.5" font-family="system-ui, monospace, sans-serif" font-weight="600">messageId</text>
<text x="350" y="574" fill="#6e7681" font-size="10" font-family="monospace" text-anchor="end">String</text>
<rect x="61" y="582" width="298" height="24" fill="#001428"/>
<line x1="61" y1="582" x2="359" y2="582" stroke="#30363d" stroke-width="0.5" opacity="0.5"/>
<rect x="70" y="587" width="22" height="14" rx="3" fill="#0d3a6a"/>
<text x="81" y="597" fill="#79c0ff" font-size="8" font-family="monospace" font-weight="700" text-anchor="middle">FK</text>
<text x="98" y="598" fill="#58a6ff" font-size="11.5" font-family="system-ui, monospace, sans-serif" font-weight="400">chatId</text>
<text x="350" y="598" fill="#6e7681" font-size="10" font-family="monospace" text-anchor="end">String</text>
<rect x="61" y="606" width="298" height="24" fill="#001428"/>
<line x1="61" y1="606" x2="359" y2="606" stroke="#30363d" stroke-width="0.5" opacity="0.5"/>
<rect x="70" y="611" width="22" height="14" rx="3" fill="#0d3a6a"/>
<text x="81" y="621" fill="#79c0ff" font-size="8" font-family="monospace" font-weight="700" text-anchor="middle">FK</text>
<text x="98" y="622" fill="#58a6ff" font-size="11.5" font-family="system-ui, monospace, sans-serif" font-weight="400">senderId</text>
<text x="350" y="622" fill="#6e7681" font-size="10" font-family="monospace" text-anchor="end">String</text>
<rect x="61" y="630" width="298" height="24" fill="#1e2433"/>
<line x1="61" y1="630" x2="359" y2="630" stroke="#30363d" stroke-width="0.5" opacity="0.5"/>
<text x="70" y="646" fill="#cdd9e5" font-size="11.5" font-family="system-ui, monospace, sans-serif" font-weight="400">content</text>
<text x="350" y="646" fill="#6e7681" font-size="10" font-family="monospace" text-anchor="end">String</text>
<rect x="61" y="654" width="298" height="24" fill="#1a1f2e"/>
<line x1="61" y1="654" x2="359" y2="654" stroke="#30363d" stroke-width="0.5" opacity="0.5"/>
<text x="70" y="670" fill="#cdd9e5" font-size="11.5" font-family="system-ui, monospace, sans-serif" font-weight="400">timestamp</text>
<text x="350" y="670" fill="#6e7681" font-size="10" font-family="monospace" text-anchor="end">Long</text>
<rect x="61" y="678" width="298" height="24" fill="#1e2433"/>
<line x1="61" y1="678" x2="359" y2="678" stroke="#30363d" stroke-width="0.5" opacity="0.5"/>
<text x="70" y="694" fill="#cdd9e5" font-size="11.5" font-family="system-ui, monospace, sans-serif" font-weight="400">deliveryStatus</text>
<text x="350" y="694" fill="#6e7681" font-size="10" font-family="monospace" text-anchor="end">String</text>
<rect x="61" y="702" width="298" height="24" fill="#1a1f2e"/>
<line x1="61" y1="702" x2="359" y2="702" stroke="#30363d" stroke-width="0.5" opacity="0.5"/>
<text x="70" y="718" fill="#cdd9e5" font-size="11.5" font-family="system-ui, monospace, sans-serif" font-weight="400">deliveryStatusTimestamp</text>
<text x="350" y="718" fill="#6e7681" font-size="10" font-family="monospace" text-anchor="end">Long</text>
<rect x="61" y="726" width="298" height="26" fill="#0a1a1a"/>
<line x1="60" y1="726" x2="360" y2="726" stroke="#1e4040" stroke-width="1"/>
<text x="70" y="743" fill="#3fb980" font-size="9.5" font-family="monospace" font-weight="700">DAO: MessageDao</text>
<rect x="61" y="752" width="298" height="20" fill="#111820"/>
<text x="70" y="766" fill="#8b949e" font-size="9.5" font-family="monospace">upsertMessage(message)</text>
<rect x="61" y="772" width="298" height="20" fill="#131c28"/>
<line x1="61" y1="772" x2="359" y2="772" stroke="#1e2433" stroke-width="0.4" opacity="0.4"/>
<text x="70" y="786" fill="#8b949e" font-size="9.5" font-family="monospace">upsertMessages(messages)</text>
<rect x="61" y="792" width="298" height="20" fill="#111820"/>
<line x1="61" y1="792" x2="359" y2="792" stroke="#1e2433" stroke-width="0.4" opacity="0.4"/>
<text x="70" y="806" fill="#8b949e" font-size="9.5" font-family="monospace">deleteMessageById(messageId)</text>
<rect x="61" y="812" width="298" height="20" fill="#131c28"/>
<line x1="61" y1="812" x2="359" y2="812" stroke="#1e2433" stroke-width="0.4" opacity="0.4"/>
<text x="70" y="826" fill="#8b949e" font-size="9.5" font-family="monospace">deleteMessageById(messageIds)</text>
<rect x="61" y="832" width="298" height="20" fill="#111820"/>
<line x1="61" y1="832" x2="359" y2="832" stroke="#1e2433" stroke-width="0.4" opacity="0.4"/>
<text x="70" y="846" fill="#8b949e" font-size="9.5" font-family="monospace">getMessagesByChatId(chatId)</text>
<rect x="61" y="852" width="298" height="20" fill="#131c28" clip-path="url(#cmessage)"/>
<line x1="61" y1="852" x2="359" y2="852" stroke="#1e2433" stroke-width="0.4" opacity="0.4"/>
<text x="70" y="866" fill="#8b949e" font-size="9.5" font-family="monospace">getMessageById(messageId)</text>
<rect x="60" y="520" width="300" height="352" rx="8" fill="none" stroke="#3d4e63" stroke-width="1"/>
<rect x="783" y="334" width="300" height="182" rx="8" fill="#000000" fill-opacity="0.4"/>
<rect x="780" y="330" width="300" height="182" rx="8" fill="#1a1f2e" stroke="#30363d" stroke-width="1"/>
<rect x="780" y="330" width="300" height="38" fill="#0d2e1e" clip-path="url(#clastmsg)"/>
<text x="930" y="354" fill="#e6edf3" font-size="13" font-family="system-ui, sans-serif" font-weight="600" text-anchor="middle">last_message_view_per_chat</text>
<rect x="1038" y="342" width="34" height="14" rx="3" fill="#0f4a35"/>
<text x="1055" y="353" fill="#3fb980" font-size="8" font-family="monospace" font-weight="700" text-anchor="middle">VIEW</text>
<line x1="780" y1="368" x2="1080" y2="368" stroke="#30363d" stroke-width="1"/>
<rect x="781" y="368" width="298" height="24" fill="#1a1f2e"/>
<text x="790" y="384" fill="#cdd9e5" font-size="11.5" font-family="system-ui, monospace, sans-serif" font-weight="400">messageId</text>
<text x="1070" y="384" fill="#6e7681" font-size="10" font-family="monospace" text-anchor="end">String</text>
<rect x="781" y="392" width="298" height="24" fill="#1e2433"/>
<line x1="781" y1="392" x2="1079" y2="392" stroke="#30363d" stroke-width="0.5" opacity="0.5"/>
<text x="790" y="408" fill="#cdd9e5" font-size="11.5" font-family="system-ui, monospace, sans-serif" font-weight="400">chatId</text>
<text x="1070" y="408" fill="#6e7681" font-size="10" font-family="monospace" text-anchor="end">String</text>
<rect x="781" y="416" width="298" height="24" fill="#1a1f2e"/>
<line x1="781" y1="416" x2="1079" y2="416" stroke="#30363d" stroke-width="0.5" opacity="0.5"/>
<text x="790" y="432" fill="#cdd9e5" font-size="11.5" font-family="system-ui, monospace, sans-serif" font-weight="400">senderId</text>
<text x="1070" y="432" fill="#6e7681" font-size="10" font-family="monospace" text-anchor="end">String</text>
<rect x="781" y="440" width="298" height="24" fill="#1e2433"/>
<line x1="781" y1="440" x2="1079" y2="440" stroke="#30363d" stroke-width="0.5" opacity="0.5"/>
<text x="790" y="456" fill="#cdd9e5" font-size="11.5" font-family="system-ui, monospace, sans-serif" font-weight="400">content</text>
<text x="1070" y="456" fill="#6e7681" font-size="10" font-family="monospace" text-anchor="end">String</text>
<rect x="781" y="464" width="298" height="24" fill="#1a1f2e"/>
<line x1="781" y1="464" x2="1079" y2="464" stroke="#30363d" stroke-width="0.5" opacity="0.5"/>
<text x="790" y="480" fill="#cdd9e5" font-size="11.5" font-family="system-ui, monospace, sans-serif" font-weight="400">timestamp</text>
<text x="1070" y="480" fill="#6e7681" font-size="10" font-family="monospace" text-anchor="end">Long</text>
<rect x="781" y="488" width="298" height="24" fill="#1e2433" clip-path="url(#clastmsg)"/>
<line x1="781" y1="488" x2="1079" y2="488" stroke="#30363d" stroke-width="0.5" opacity="0.5"/>
<text x="790" y="504" fill="#cdd9e5" font-size="11.5" font-family="system-ui, monospace, sans-serif" font-weight="400">deliveryStatus</text>
<text x="1070" y="504" fill="#6e7681" font-size="10" font-family="monospace" text-anchor="end">String</text>
<rect x="780" y="330" width="300" height="182" rx="8" fill="none" stroke="#1a5e3c" stroke-width="1"/>
<rect x="20" y="896" width="22" height="14" rx="3" fill="#5a4200"/>
<text x="31" y="907" fill="#e3b341" font-size="8" font-family="monospace" font-weight="700" text-anchor="middle">PK</text>
<rect x="48" y="896" width="22" height="14" rx="3" fill="#0d3a6a"/>
<text x="59" y="907" fill="#79c0ff" font-size="8" font-family="monospace" font-weight="700" text-anchor="middle">FK</text>
<rect x="76" y="896" width="38" height="14" rx="3" fill="#3a2a00"/>
<text x="95" y="907" fill="#e3b341" font-size="8" font-family="monospace" font-weight="700" text-anchor="middle">PK·FK</text>
<text x="124" y="907" fill="#6e7681" font-size="10" font-family="system-ui, sans-serif">solid = FK relation · dashed = DB view</text>
</svg>